<mxfile host="app.diagrams.net" modified="2023-03-25T12:19:50.170Z" agent="Mozilla/5.0 (Windows NT 10.0; Win64; x64) AppleWebKit/537.36 (KHTML, like Gecko) Chrome/111.0.0.0 Safari/537.36" version="21.1.1" etag="f6GjD5GN9z1H1JAVBOPy" type="github">
  <diagram name="Page-1" id="L5p8RoPfU1SYx8sE2z6p">
    <mxGraphModel>
      <root>
        <mxCell id="0" />
        <mxCell id="1" parent="0" />
      </root>
    </mxGraphModel>
  </diagram>
</mxfile>
